<?xml version="1.0" encoding="utf-8"?>
<!-- Generator: Adobe Illustrator 16.0.0, SVG Export Plug-In . SVG Version: 6.00 Build 0)  -->
<!DOCTYPE svg PUBLIC "-//W3C//DTD SVG 1.1//EN" "http://www.w3.org/Graphics/SVG/1.1/DTD/svg11.dtd" [
	<!ENTITY ns_extend "http://ns.adobe.com/Extensibility/1.0/">
	<!ENTITY ns_ai "http://ns.adobe.com/AdobeIllustrator/10.0/">
	<!ENTITY ns_graphs "http://ns.adobe.com/Graphs/1.0/">
	<!ENTITY ns_vars "http://ns.adobe.com/Variables/1.0/">
	<!ENTITY ns_imrep "http://ns.adobe.com/ImageReplacement/1.0/">
	<!ENTITY ns_sfw "http://ns.adobe.com/SaveForWeb/1.0/">
	<!ENTITY ns_custom "http://ns.adobe.com/GenericCustomNamespace/1.0/">
	<!ENTITY ns_adobe_xpath "http://ns.adobe.com/XPath/1.0/">
]>
<svg version="1.1" xmlns:x="&ns_extend;" xmlns:i="&ns_ai;" xmlns:graph="&ns_graphs;"
	 xmlns="http://www.w3.org/2000/svg" xmlns:xlink="http://www.w3.org/1999/xlink"
	 viewBox="0 0 32 32" enable-background="new 0 0 32 32" xml:space="preserve">
<metadata>
	<sfw  xmlns="&ns_sfw;">
		<slices></slices>
		<sliceSourceBounds  width="31.716" height="30.734" y="-32" x="0.17" bottomLeftOrigin="true"></sliceSourceBounds>
	</sfw>
</metadata>
<path fill-rule="evenodd" clip-rule="evenodd" d="M30.674,23.666c-3.088,5.904-12.169,10.445-20.277,7.313
	c-1.482-0.573-3.709-0.478-5.3-1.794c-1.616-1.336-1.724-3.301-2.422-4.409C-1.083,18.813-0.227,11.306,2.7,6.773
	c3.847-5.957,13.12-7.304,20.598-2.947C30.775,8.183,33.778,17.73,30.674,23.666z M22.666,4.741C16.286,0.647,6.68,2.3,3.711,7.833
	c-2.7,5.032-0.013,13.225,7.464,17.583c7.479,4.356,15.47,3.562,18.5-2.447C32.572,17.223,29.624,9.206,22.666,4.741z
	 M19.971,15.912c-0.731-0.468-0.918-1.25,0.138-1.65c0.765-0.291,4.051-1.271,5.974-1.851c0.427-0.128,1.101-0.133,1.587,0.256
	c1.61,1.283,2.196,5.594,0.737,7.865c-0.337,0.524-1.116,0.518-1.651,0.136C24.643,19.163,20.657,16.353,19.971,15.912z
	 M18.217,11.715c0.019-0.904,0.143-5.073,0.178-5.586c0.044-0.656,0.562-0.851,1.283-0.881c2.078-0.087,5.48,2.535,6.146,4.546
	c0.284,0.859-0.21,1.358-0.808,1.562c-1.399,0.476-4.438,1.437-5.349,1.716C18.853,13.323,18.195,12.864,18.217,11.715z
	 M8.933,18.381c1.742-0.755,6.02-2.299,6.67-2.555c0.486-0.192,1.044,0.31,1.034,0.924c-0.017,0.958-0.244,5.146-0.334,7.134
	c-0.039,0.864-0.543,1.153-1.459,1.071c-2.591-0.233-5.901-2.468-6.539-4.902C8.071,19.157,8.484,18.576,8.933,18.381z
	 M16.988,11.845c-0.021,0.846-0.787,0.842-1.427,0.34c-0.605-0.475-4.481-3.609-6.367-5.093C8.69,6.697,8.686,5.978,9.055,5.559
	c1.308-1.485,5.064-2.103,7.116-1.224c0.658,0.281,0.951,0.753,0.945,1.264C17.099,7.202,17.016,10.773,16.988,11.845z
	 M14.765,14.742c-0.824,0.319-6.743,2.44-7.326,2.614c-0.8,0.236-1.26,0.015-1.663-0.404c-1.576-1.64-1.669-7.936,0.767-9.131
	c0.523-0.257,1.045-0.173,1.326,0.027c0.281,0.2,6.277,4.754,7.188,5.506C15.461,13.688,15.453,14.476,14.765,14.742z
	 M19.155,16.879c0.508,0.394,4.744,3.436,6.789,5.03c0.636,0.496,0.846,1.222,0.561,1.872c-1.06,2.422-5.861,3.161-7.895,2.271
	c-0.846-0.371-0.923-0.87-0.908-1.812c0.031-2.188,0.16-5.93,0.146-6.589C17.825,16.535,18.521,16.388,19.155,16.879z" stroke="none" />
</svg>
