<!-- Generator: Adobe Illustrator 19.0.0, SVG Export Plug-In  -->
<svg version="1.1"
   xmlns="http://www.w3.org/2000/svg" xmlns:xlink="http://www.w3.org/1999/xlink" xmlns:a="http://ns.adobe.com/AdobeSVGViewerExtensions/3.0/"
   x="0px" y="0px" viewBox="0 0 17 13" enable-background="new 0 0 17 13" xml:space="preserve">
<path d="M4,0v4H0v9h13V9h4V0H4z M4,12H1V9h3V12z M4,8H1V5h3V8z M8,12H5V9h3V12z M8,8H5V5h3V8z M8,4H5V1h3V4z M12,12H9V9h3V12z M12,8H9V5h3V8z M12,4H9V1h3V4z M16,8h-3V5h3V8z M16,4h-3V1h3V4z" stroke="none"/>
</svg>
