<svg version="1.1"
	 xmlns="http://www.w3.org/2000/svg" xmlns:xlink="http://www.w3.org/1999/xlink" xmlns:a="http://ns.adobe.com/AdobeSVGViewerExtensions/3.0/"
	 x="0px" y="0px" viewBox="0 0 16 16" style="enable-background:new 0 0 16 16;" xml:space="preserve">
	<path d="M2,15v-3.7C1.4,10.9,0.1,9.8,0.1,8c0-2.5,3.5-4.5,7.9-4.5s7.9,2,7.9,4.5s-3.5,4.5-7.9,4.5c-1.5,0-2.4,0-2.7,0L2,15z M8,4.5
		C4.3,4.5,1.1,6.1,1.1,8c0,1.7,1.6,2.5,1.6,2.6L3,10.7L3,13l1.9-1.5l0.2,0c0,0,0.8,0.1,2.9,0.1c3.7,0,6.9-1.6,6.9-3.5
		S11.7,4.5,8,4.5z" stroke="none"/>
<path d="M2.5,11v3l2.6-2.1L5,11.4c-0.9,0-1.4-0.1-2-0.7C2.9,10.8,2.5,11,2.5,11z" stroke="none"/>

</svg>
