<!-- Generator: Adobe Illustrator 19.0.0, SVG Export Plug-In  -->
<svg version="1.1"
   xmlns="http://www.w3.org/2000/svg" xmlns:xlink="http://www.w3.org/1999/xlink" xmlns:a="http://ns.adobe.com/AdobeSVGViewerExtensions/3.0/"
   x="0px" y="0px" viewBox="0 0 16 16" enable-background="new 0 0 16 16" xml:space="preserve">
<defs>
</defs>
<g>
  <path stroke="none" fill-rule="evenodd" clip-rule="evenodd" d="M10.5,2.5l-8,8L1,15l4.5-1.5l8-8L10.5,2.5z M5.25,11.75l-1-1L4,10.5l6.75-6.75
    l1.5,1.5L5.5,12L5.25,11.75z"/>
</g>
<g>
  <path stroke="none" fill-rule="evenodd" clip-rule="evenodd" d="M13.999,2c-1.5-1.5-3,0-3,0l-1,1l3,3l1-1C14,5,15.5,3.5,13.999,2z M13.25,4.25
    L13,4.5L11.5,3l0.25-0.25c0,0,0.78-0.719,1.499,0S13.25,4.25,13.25,4.25z"/>
</g>
</svg>
