<svg version="1.1"
	 xmlns="http://www.w3.org/2000/svg" xmlns:xlink="http://www.w3.org/1999/xlink" xmlns:a="http://ns.adobe.com/AdobeSVGViewerExtensions/3.0/"
   viewBox="0 0 16 16">
<defs>
</defs>
<g>
	<g>
		<path stroke="none"  d="M7,12.5H3c-0.828,0-1.5-0.672-1.5-1.5V4c0-0.828,0.672-1.5,1.5-1.5h4
			c0.652,0,1.201,0.419,1.408,1h1.559C9.805,1.84,8.822,1,7,1H3C1,1,0,2,0,4v7c0,2,1,3,3,3h4c1.822,0,2.805-0.84,2.967-2.5H8.408
			C8.202,12.081,7.652,12.5,7,12.5z M12.5,4l-1,1l1.75,1.75H6.5v1.5h6.75L11.5,10l1,1L16,7.5L12.5,4z"/>
	</g>
</g>
</svg>