<svg xmlns="http://www.w3.org/2000/svg" viewBox="0 0 16 16"><path stroke="none" d="M16.000,8.049 C16.000,3.629 12.418,0.047 8.000,0.047 C3.582,0.047 -0.000,3.629 -0.000,8.049 C-0.000,12.043 2.925,15.353 6.750,15.953 L6.750,10.362 L4.719,10.362 L4.719,8.049 L6.750,8.049 L6.750,6.286 C6.750,4.280 7.944,3.173 9.772,3.173 C10.647,3.173 11.563,3.329 11.563,3.329 L11.563,5.298 L10.554,5.298 C9.560,5.298 9.250,5.915 9.250,6.548 L9.250,8.049 L11.469,8.049 L11.114,10.362 L9.250,10.362 L9.250,15.953 C13.075,15.353 16.000,12.043 16.000,8.049z"></path></svg>