<svg version="1.1"
	 xmlns="http://www.w3.org/2000/svg" xmlns:xlink="http://www.w3.org/1999/xlink" xmlns:a="http://ns.adobe.com/AdobeSVGViewerExtensions/3.0/"
	 x="0px" y="0px" width="16px" height="16px" viewBox="0 0 16 16" style="enable-background:new 0 0 16 16;" xml:space="preserve">
<style type="text/css">
	.st0{fill-rule:evenodd;clip-rule:evenodd;fill:none;}
</style>
<defs>
</defs>
<g>
	<path stroke="none" d="M2,7H1V4c0-0.6,0.4-1,1-1h3v1H2V7z"/>
</g>
<g>
	<path stroke="none" d="M15,7h-1V4h-3V3h3c0.6,0,1,0.4,1,1V7z"/>
</g>
<g>
	<path stroke="none" d="M14,13h-3v-1h3V9h1v3C15,12.6,14.6,13,14,13z"/>
</g>
<g>
	<path stroke="none" d="M5,13H2c-0.6,0-1-0.4-1-1V9h1v3h3V13z"/>
</g>
</svg>