<svg version="1.1"
	 xmlns="http://www.w3.org/2000/svg" xmlns:xlink="http://www.w3.org/1999/xlink" xmlns:a="http://ns.adobe.com/AdobeSVGViewerExtensions/3.0/" viewBox="0 0 16 16" enable-background="new 0 0 16 16" xml:space="preserve">
<defs>
</defs>
<g>
	<path d="M6.991,11.998c-0.975-0.975-1.457-0.463-2.571,0.651l-1.067-1.067c1.114-1.114,1.601-1.62,0.503-2.718L1.12,6.127
		C0.095,5.102,0.124,3.391,1.259,2.255l0.753-0.752l1.054,1.054L2.462,3.161C1.721,3.901,1.858,4.581,2.71,5.433l2.51,2.51
		c0.802,0.802,0.713,1.954,0.232,2.583c0.58-0.457,1.632-0.719,2.583,0.231l2.548,2.548c0.851,0.851,1.617,0.877,2.333,0.161
		l0.53-0.531L14.5,13.99l-0.753,0.752c-0.975,0.975-2.711,1.3-3.822,0.189L6.991,11.998z" stroke="none"/>
</g>
<path d="M8.5,8.75c-0.334,0-0.648-0.131-0.884-0.368c-0.488-0.49-0.488-1.287,0-1.776c0.472-0.474,1.296-0.474,1.768,0
	c0.236,0.237,0.366,0.553,0.366,0.888s-0.13,0.651-0.366,0.888l0,0l0,0l0,0C9.148,8.619,8.834,8.75,8.5,8.75z" stroke="none"/>
<path d="M11.5,5.75c-0.334,0-0.648-0.131-0.884-0.368c-0.488-0.49-0.488-1.287,0-1.776c0.472-0.474,1.296-0.474,1.768,0
	c0.236,0.237,0.366,0.553,0.366,0.888s-0.13,0.651-0.366,0.888l0,0l0,0l0,0C12.148,5.619,11.834,5.75,11.5,5.75z" stroke="none"/>
<path d="M14.5,2.75c-0.334,0-0.648-0.131-0.884-0.368c-0.488-0.49-0.488-1.287,0-1.776c0.472-0.474,1.296-0.474,1.768,0
	c0.236,0.237,0.366,0.553,0.366,0.888s-0.13,0.651-0.366,0.888l0,0l0,0l0,0C15.148,2.619,14.834,2.75,14.5,2.75z" stroke="none"/>
</svg>
