<svg version="1.1"
	 xmlns="http://www.w3.org/2000/svg" xmlns:xlink="http://www.w3.org/1999/xlink" xmlns:a="http://ns.adobe.com/AdobeSVGViewerExtensions/3.0/"
   viewBox="0 0 16 16" >
<defs>
</defs>
<g>
	<g>
		<path fill-rule="evenodd" stroke="none" clip-rule="evenodd" d="M11,6c-0.151,0-0.506,0-1,0c0,0,0-1.516,0-2c0-2.209-1.791-4-4-4
			C3.791,0,2,1.791,2,4c0,0.8,0,2,0,2C1.627,6,1.285,6,1,6C0,6,0,7,0,7s0,7,0,7.999S1,16,1,16h10c0,0,1,0,1-1s0-8,0-8S12,6,11,6z
			 M8,6H4c0,0,0-1.333,0-2c0-1.104,0.895-2,2-2c1.104,0,2,0.895,2,2C8,4.362,8,6,8,6z"/>
	</g>
</g>
</svg>
