<!-- Generator: Adobe Illustrator 19.0.0, SVG Export Plug-In  -->
<svg version="1.1"
   xmlns="http://www.w3.org/2000/svg" xmlns:xlink="http://www.w3.org/1999/xlink" xmlns:a="http://ns.adobe.com/AdobeSVGViewerExtensions/3.0/"
viewBox="0 0 16 16" enable-background="new 0 0 16 16" xml:space="preserve">
<defs>
</defs>
<g>
  <g>
    <path stroke="none" fill-rule="evenodd" clip-rule="evenodd" d="M16,14.5l-4.399-4.399c0.721-1.019,1.148-2.259,1.148-3.602
      c0-3.452-2.798-6.25-6.249-6.25c-3.452,0-6.251,2.798-6.251,6.25c0,3.452,2.799,6.25,6.251,6.25c1.343,0,2.583-0.427,3.602-1.148
      L14.5,16L16,14.5z M1.25,6.501c0-2.9,2.351-5.251,5.251-5.251s5.249,2.351,5.249,5.251c0,2.899-2.35,5.249-5.249,5.249
      S1.25,9.4,1.25,6.501z"/>
  </g>
</g>
</svg>
