<svg version="1.1"
	 xmlns="http://www.w3.org/2000/svg" xmlns:xlink="http://www.w3.org/1999/xlink" xmlns:a="http://ns.adobe.com/AdobeSVGViewerExtensions/3.0/"
	 x="0px" y="0px" viewBox="0 0 16 16" style="enable-background:new 0 0 16 16;" xml:space="preserve">
	<path d="M8,12.5c-5,0-7.7-4.1-7.8-4.2L0,8l0.1-0.3C0.2,7.6,2.5,3.5,8,3.5c5.5,0,7.8,4.1,7.8,4.3L16,8.1l-0.2,0.2
		C15.7,8.5,13,12.5,8,12.5z M1.2,8c0.7,0.8,3.1,3.5,6.8,3.5c3.8,0,6.1-2.7,6.8-3.5C14.2,7.1,12.2,4.5,8,4.5C3.8,4.5,1.8,7.1,1.2,8z" stroke="none"
		/>
	<path d="M8,10.5c-1.9,0-3.5-1.6-3.5-3.5S6.1,3.5,8,3.5s3.5,1.6,3.5,3.5S9.9,10.5,8,10.5z M8,4.5C6.6,4.5,5.5,5.6,5.5,7
		S6.6,9.5,8,9.5s2.5-1.1,2.5-2.5S9.4,4.5,8,4.5z" stroke="none"/>
<circle cx="6.7" cy="6.5" r="1.5"/>
</svg>