<svg xmlns="http://www.w3.org/2000/svg" viewBox="0 0 16 16"><circle stroke="none" fill-rule="evenodd" clip-rule="evenodd" fill="#fff" cx="8" cy="8" r="7.75"/><path stroke="none" fill-rule="evenodd" clip-rule="evenodd" d="M12 5.06L10.94 4 8 6.94 5.06 4 4 5.06 6.94 8 4 10.94 5.06 12 8 9.06 10.94 12 12 10.94 9.06 8zM8 .75C3.996.75.75 3.996.75 8S3.996 15.25 8 15.25s7.25-3.246 7.25-7.25S12.004.75 8 .75zm0 13.5c-3.452 0-6.25-2.798-6.25-6.25S4.548 1.75 8 1.75 14.25 4.548 14.25 8 11.452 14.25 8 14.25z"/></svg>