<!-- Generator: Adobe Illustrator 21.0.0, SVG Export Plug-In  -->
<svg version="1.1"
	 xmlns="http://www.w3.org/2000/svg" xmlns:xlink="http://www.w3.org/1999/xlink" xmlns:a="http://ns.adobe.com/AdobeSVGViewerExtensions/3.0/" viewBox="0 0 16 16" enable-background="new 0 0 16 16" xml:space="preserve">
<defs>
</defs>
<g>
	<path d="M1.5,16c-0.401,0-0.778-0.157-1.061-0.442c-0.585-0.588-0.585-1.544,0-2.132c0.567-0.569,1.555-0.569,2.122,0
		C2.844,13.711,3,14.09,3,14.493s-0.156,0.781-0.44,1.066l0,0l0,0l0,0C2.277,15.843,1.9,16,1.5,16z" stroke="none"/>
</g>
<g>
	<path d="M8,16H6c0-3.589-2.411-6-6-6V8C4.71,8,8,11.29,8,16z" stroke="none"/>
</g>
<g>
	<path d="M12,16h-2C10,10.019,5.981,6,0,6V4C7.065,4,12,8.935,12,16z" stroke="none"/>
</g>
<g>
	<path d="M16,16h-2C14,7.626,8.374,2,0,2V0C9.42,0,16,6.579,16,16z" stroke="none"/>
</g>
</svg>
