<!-- Generator: Adobe Illustrator 21.0.0, SVG Export Plug-In  -->
<svg version="1.1"
   xmlns="http://www.w3.org/2000/svg" xmlns:xlink="http://www.w3.org/1999/xlink" xmlns:a="http://ns.adobe.com/AdobeSVGViewerExtensions/3.0/"
   x="0px" y="0px" viewBox="0 0 16 16" enable-background="new 0 0 16 16" xml:space="preserve">
<defs>
</defs>
<g>
  <path stroke="none" fill-rule="evenodd" clip-rule="evenodd" d="M8.018,1.747c-3.452-0.001-6.249,2.797-6.249,6.25
    c-0.001,3.452,2.798,6.251,6.25,6.25c3.451,0,6.25-2.798,6.25-6.25S11.469,1.746,8.018,1.747z M8.018,12.747
    c-2.624,0.001-4.75-2.127-4.75-4.75c0-2.625,2.126-4.751,4.749-4.75c2.623-0.001,4.751,2.126,4.751,4.75
    C12.768,10.62,10.64,12.747,8.018,12.747z"/>
</g>
<g>
  <g>
    <g>
      <polygon stroke="none" fill-rule="evenodd" clip-rule="evenodd" points="2.098,13.285 3.848,12.446 2.63,10.86 1.367,12.334      "/>
      <polygon stroke="none" fill-rule="evenodd" clip-rule="evenodd" points="14.632,3.667 13.902,2.715 12.151,3.555 13.368,5.141      "/>
    </g>
  </g>
  <g>
    <g>
      <polygon stroke="none" fill-rule="evenodd" clip-rule="evenodd" points="0.246,9.626 2.181,9.775 1.92,7.792 0.089,8.437       "/>
      <polygon stroke="none" fill-rule="evenodd" clip-rule="evenodd" points="15.91,7.564 15.754,6.374 13.817,6.226 14.078,8.209       "/>
    </g>
  </g>
  <g>
    <g>
      <polygon stroke="none" fill-rule="evenodd" clip-rule="evenodd" points="0.472,5.532 2.073,6.628 2.839,4.78 0.93,4.423      "/>
      <polygon stroke="none" fill-rule="evenodd" clip-rule="evenodd" points="15.068,11.578 15.528,10.469 13.925,9.372 13.16,11.22       "/>
    </g>
  </g>
  <g>
    <g>
      <polygon stroke="none" fill-rule="evenodd" clip-rule="evenodd" points="2.715,2.098 3.554,3.848 5.14,2.631 3.666,1.367       "/>
      <polygon stroke="none" fill-rule="evenodd" clip-rule="evenodd" points="12.333,14.633 13.285,13.903 12.445,12.151 10.859,13.369      "/>
    </g>
  </g>
  <g>
    <g>
      <polygon stroke="none" fill-rule="evenodd" clip-rule="evenodd" points="6.374,0.247 6.225,2.182 8.208,1.921 7.563,0.089      "/>
      <polygon stroke="none" fill-rule="evenodd" clip-rule="evenodd" points="8.436,15.91 9.626,15.755 9.774,13.818 7.791,14.079       "/>
    </g>
  </g>
  <g>
    <g>
      <polygon stroke="none" fill-rule="evenodd" clip-rule="evenodd" points="10.468,0.472 9.372,2.074 11.22,2.839 11.577,0.931      "/>
      <polygon stroke="none" fill-rule="evenodd" clip-rule="evenodd" points="4.422,15.069 5.531,15.529 6.628,13.926 4.78,13.16      "/>
    </g>
  </g>
</g>
</svg>
