<!-- Generator: Adobe Illustrator 19.0.0, SVG Export Plug-In  -->
<svg version="1.1"
   xmlns="http://www.w3.org/2000/svg" xmlns:xlink="http://www.w3.org/1999/xlink" xmlns:a="http://ns.adobe.com/AdobeSVGViewerExtensions/3.0/"
   x="0px" y="0px" viewBox="0 0 16 16" enable-background="new 0 0 16 16"
   xml:space="preserve">
<defs>
</defs>
<g>
    <path stroke="none" d="M6.938,16.001c-0.43,0-0.891-0.16-1.32-0.59L0.607,10.38c-1.013-1.013-0.57-2.189-0.026-2.733l6.538-6.501
      C7.145,1.116,8.176,0,9.427,0h4.044c1.153,0,2.5,0.659,2.5,2.516v3.991c0,1.167-1.029,2.229-1.146,2.347L8.32,15.415
      C8.012,15.724,7.502,16.001,6.938,16.001z M9.427,1C8.626,1,7.849,1.828,7.841,1.837L1.287,8.354
      C1.141,8.506,0.7,9.06,1.314,9.673l5.011,5.031c0.589,0.59,1.137,0.15,1.29,0.003l6.501-6.559
      c0.238-0.241,0.855-1.002,0.855-1.642V2.516c0-1.318-0.94-1.516-1.5-1.516H9.427z M10.998,6.754c-0.468,0-0.907-0.183-1.238-0.515
      c-0.683-0.685-0.683-1.801,0-2.487c0.661-0.664,1.814-0.664,2.475,0c0.331,0.332,0.513,0.774,0.513,1.243
      c0,0.469-0.182,0.911-0.513,1.243l0,0l0,0l0,0C11.905,6.571,11.465,6.754,10.998,6.754z"/>
</g>
</svg>
