<svg version="1.1"
   xmlns="http://www.w3.org/2000/svg" xmlns:xlink="http://www.w3.org/1999/xlink" xmlns:a="http://ns.adobe.com/AdobeSVGViewerExtensions/3.0/" viewBox="0 0 40 40" enable-background="new 0 0 40 40" xml:space="preserve">
<defs>
</defs>
<circle fill="none" cx="20" cy="20" r="19.5"/>
<path stroke="none" d="M33.009,33.775l-0.66-0.327c-1.905-0.544-3.805-1.104-5.715-1.627c-2.121-0.58-2.958-1.511-2.557-3.646
  c0.349-1.86,1.183-3.627,1.766-5.447c0.403-1.259,1.265-2.668,0.989-3.778c-0.398-1.603-0.046-3.015,0.045-4.518
  c0.123-2.023-0.255-3.987-2.162-5.055C23.196,8.529,21.61,7.984,20,8c-1.61-0.016-3.196,0.528-4.714,1.378
  c-1.907,1.068-2.285,3.032-2.162,5.055c0.091,1.503,0.443,2.914,0.045,4.518c-0.276,1.11,0.586,2.519,0.989,3.778
  c0.583,1.82,1.417,3.586,1.766,5.447c0.401,2.134-0.436,3.066-2.557,3.646c-1.911,0.522-3.811,1.083-5.715,1.627l-0.66,0.327
  l-0.295,1.254C9.24,37.341,13.461,40,20,40s10.76-2.659,13.304-4.971L33.009,33.775z"/>
</svg>
