<!-- Generator: Adobe Illustrator 19.0.0, SVG Export Plug-In  -->
<svg version="1.1"
   xmlns="http://www.w3.org/2000/svg" xmlns:xlink="http://www.w3.org/1999/xlink" xmlns:a="http://ns.adobe.com/AdobeSVGViewerExtensions/3.0/" viewBox="0 0 40 40" enable-background="new 0 0 40 40" xml:space="preserve">
<defs>
</defs>
<path stroke="none" opacity="0.2" d="M33.009,33.775l-0.66-0.327c-1.905-0.544-3.805-1.104-5.715-1.627c-2.121-0.58-2.958-1.511-2.557-3.646
  c0.349-1.86,1.183-3.627,1.766-5.447c0.403-1.259,1.265-2.668,0.989-3.778c-0.398-1.603-0.046-3.015,0.045-4.518
  c0.123-2.023-0.255-3.987-2.162-5.055C23.196,8.529,21.61,7.984,20,8c-1.61-0.016-3.196,0.528-4.714,1.378
  c-1.907,1.068-2.285,3.032-2.162,5.055c0.091,1.503,0.443,2.914,0.045,4.518c-0.276,1.11,0.586,2.519,0.989,3.778
  c0.583,1.82,1.417,3.586,1.766,5.447c0.401,2.134-0.436,3.066-2.557,3.646c-1.911,0.522-3.811,1.083-5.715,1.627l-0.66,0.327
  l-0.295,1.254C9.24,37.341,13.461,40,20,40s10.76-2.659,13.304-4.971L33.009,33.775z"/>
<g opacity="0.2">
  <path stroke="none" d="M35.821,32.232l-0.832-0.644c1.012-1.309,1.851-2.746,2.491-4.271l0.97,0.407C37.774,29.333,36.89,30.85,35.821,32.232z
     M39.821,22.687l-1.043-0.141c0.22-1.63,0.225-3.293,0.015-4.942l1.034-0.212l0.01,0.079
    C40.059,19.212,40.054,20.967,39.821,22.687z M37.51,12.752c-0.631-1.527-1.463-2.967-2.471-4.279l0.834-0.641
    c1.065,1.386,1.943,2.906,2.609,4.519L37.51,12.752z M31.544,4.976c-1.314-1.009-2.754-1.843-4.279-2.478l0.405-0.972
    c1.61,0.67,3.129,1.55,4.515,2.616L31.544,4.976z M1.551,27.724l0.97-0.407c0.64,1.525,1.479,2.961,2.491,4.271l-0.832,0.644
    C3.11,30.85,2.226,29.333,1.551,27.724z M0.162,17.471l0.01-0.079l1.034,0.212c-0.21,1.65-0.205,3.312,0.015,4.942l-1.043,0.141
    C-0.054,20.967-0.059,19.212,0.162,17.471z M1.518,12.35c0.666-1.612,1.544-3.132,2.609-4.519l0.834,0.641
    c-1.008,1.313-1.84,2.753-2.471,4.279L1.518,12.35z M7.816,4.142c1.387-1.066,2.906-1.945,4.515-2.616l0.405,0.972
    C11.21,3.134,9.77,3.968,8.456,4.976L7.816,4.142z M22.491,1.214c-1.612-0.212-3.35-0.215-4.981-0.007l-0.132-1.038
    c0,0,3.551-0.222,5.25,0.001L22.491,1.214z"/>
</g>
</svg>
