<svg xmlns="http://www.w3.org/2000/svg" viewBox="0 0 32 32"><path fill-rule="evenodd" clip-rule="evenodd" d="M30.674 23.666c-3.088 5.904-12.169 10.445-20.277 7.313-1.482-.573-3.709-.478-5.3-1.794-1.616-1.336-1.724-3.301-2.422-4.409-3.758-5.963-2.902-13.47.025-18.003C6.547.816 15.82-.531 23.298 3.826c7.477 4.357 10.48 13.904 7.376 19.84zM22.666 4.741C16.286.647 6.68 2.3 3.711 7.833c-2.7 5.032-.013 13.225 7.464 17.583 7.479 4.356 15.47 3.562 18.5-2.447 2.897-5.746-.051-13.763-7.009-18.228zm-2.695 11.171c-.731-.468-.918-1.25.138-1.65.765-.291 4.051-1.271 5.974-1.851.427-.128 1.101-.133 1.587.256 1.61 1.283 2.196 5.594.737 7.865-.337.524-1.116.518-1.651.136-2.113-1.505-6.099-4.315-6.785-4.756zm-1.754-4.197c.019-.904.143-5.073.178-5.586.044-.656.562-.851 1.283-.881 2.078-.087 5.48 2.535 6.146 4.546.284.859-.21 1.358-.808 1.562a271.793 271.793 0 01-5.349 1.716c-.814.251-1.472-.208-1.45-1.357zm-9.284 6.666c1.742-.755 6.02-2.299 6.67-2.555.486-.192 1.044.31 1.034.924-.017.958-.244 5.146-.334 7.134-.039.864-.543 1.153-1.459 1.071-2.591-.233-5.901-2.468-6.539-4.902-.234-.896.179-1.477.628-1.672zm8.055-6.536c-.021.846-.787.842-1.427.34-.605-.475-4.481-3.609-6.367-5.093-.504-.395-.508-1.114-.139-1.533 1.308-1.485 5.064-2.103 7.116-1.224.658.281.951.753.945 1.264-.017 1.603-.1 5.174-.128 6.246zm-2.223 2.897c-.824.319-6.743 2.44-7.326 2.614-.8.236-1.26.015-1.663-.404-1.576-1.64-1.669-7.936.767-9.131.523-.257 1.045-.173 1.326.027.281.2 6.277 4.754 7.188 5.506.404.334.396 1.122-.292 1.388zm4.39 2.137c.508.394 4.744 3.436 6.789 5.03.636.496.846 1.222.561 1.872-1.06 2.422-5.861 3.161-7.895 2.271-.846-.371-.923-.87-.908-1.812.031-2.188.16-5.93.146-6.589-.023-1.116.673-1.263 1.307-.772z" stroke="none"/></svg>