<svg xmlns="http://www.w3.org/2000/svg" viewBox="0 0 64 64"><path d="M26.563 41.863c-1.563-.75-2.98-1.123-4.25-1.123-2 0-3.62.582-4.858 1.746-1.237 1.164-1.856 2.6-1.856 4.31 0 1.61.516 2.918 1.55 3.92 1.033 1 2.438 1.5 4.212 1.5 1.498 0 2.88-.325 4.15-.976 1.27-.65 2.166-1.526 2.687-2.625.52-1.1.78-2.633.78-4.603V23.598l14.53-4.517v17.68c-1.124-.472-1.934-.765-2.43-.88a7.83 7.83 0 00-1.722-.17c-1.986 0-3.606.59-4.86 1.77-1.253 1.18-1.88 2.584-1.88 4.212 0 1.612.53 2.926 1.588 3.943 1.058 1.018 2.474 1.526 4.25 1.526 1.545 0 2.933-.332 4.162-1 1.23-.667 2.1-1.514 2.613-2.54.514-1.025.77-2.547.77-4.565V12l-19.437 6.056v23.807z"/></svg>