<svg xmlns="http://www.w3.org/2000/svg" viewBox="0 0 16 16"><path d="M6.991 11.998c-.975-.975-1.457-.463-2.571.651l-1.067-1.067c1.114-1.114 1.601-1.62.503-2.718L1.12 6.127C.095 5.102.124 3.391 1.259 2.255l.753-.752 1.054 1.054-.604.604c-.741.74-.604 1.42.248 2.272l2.51 2.51c.802.802.713 1.954.232 2.583.58-.457 1.632-.719 2.583.231l2.548 2.548c.851.851 1.617.877 2.333.161l.53-.531L14.5 13.99l-.753.752c-.975.975-2.711 1.3-3.822.189l-2.934-2.933z" stroke="none"/><path d="M8.5 8.75a1.24 1.24 0 01-.884-.368 1.26 1.26 0 010-1.776c.472-.474 1.296-.474 1.768 0 .236.237.366.553.366.888s-.13.651-.366.888a1.24 1.24 0 01-.884.368zM11.5 5.75a1.24 1.24 0 01-.884-.368 1.26 1.26 0 010-1.776c.472-.474 1.296-.474 1.768 0 .236.237.366.553.366.888s-.13.651-.366.888a1.24 1.24 0 01-.884.368zM14.5 2.75a1.24 1.24 0 01-.884-.368 1.26 1.26 0 010-1.776c.472-.474 1.296-.474 1.768 0 .236.237.366.553.366.888s-.13.651-.366.888a1.24 1.24 0 01-.884.368z" stroke="none"/></svg>