<svg xmlns="http://www.w3.org/2000/svg" viewBox="0 0 16 16"><path stroke="none" d="M13.634 13.629h-2.371v-3.71c0-.884-.016-2.023-1.233-2.023-1.235 0-1.424.964-1.424 1.959v3.774H6.234V6H8.51v1.043h.032a2.494 2.494 0 012.246-1.232c2.403 0 2.846 1.581 2.846 3.634v4.184zM3.56 4.958a1.375 1.375 0 111.375-1.375A1.375 1.375 0 013.56 4.958m1.186 8.671H2.372V6h2.373l.001 7.629zM14.816.007H1.181A1.168 1.168 0 000 1.16v13.679a1.167 1.167 0 001.181 1.154h13.635A1.171 1.171 0 0016 14.839V1.16A1.17 1.17 0 0014.816.007z"/></svg>