<svg xmlns="http://www.w3.org/2000/svg" viewBox="0 0 16 16"><path stroke="none" d="M12.1 10.6c-.7.5-1.5.8-2.4 1l2.3 2.3c.5.5.5 1.2 0 1.7s-1.2.5-1.7 0L8 13.4l-2.3 2.3c-.2.2-.5.3-.8.3-.3 0-.6-.1-.9-.4-.5-.5-.5-1.2 0-1.7l2.3-2.3c-.8-.2-1.7-.5-2.4-1-.5-.3-.7-1-.4-1.6.4-.6 1.1-.7 1.7-.4 1.7 1.1 3.9 1.1 5.6 0 .6-.4 1.3-.2 1.7.4.3.5.1 1.3-.4 1.6zM8 8.3c-2.3 0-4.1-1.9-4.1-4.1C3.9 1.8 5.7 0 8 0s4.1 1.9 4.1 4.1c0 2.3-1.8 4.2-4.1 4.2zm0-5.9c-1 0-1.7.8-1.7 1.7 0 .9.8 1.7 1.7 1.7.9 0 1.7-.8 1.7-1.7 0-.9-.7-1.7-1.7-1.7z"/></svg>