<svg xmlns="http://www.w3.org/2000/svg" viewBox="0 0 16 16"><path stroke="none" d="M1.155 6.049c4.275-1.861 7.126-3.087 8.553-3.68C13.781.677 14.627.384 15.179.374c.121-.002.392.028.568.17.148.12.189.283.209.397.019.114.043.373.024.576-.221 2.317-1.176 7.937-1.661 10.531-.206 1.098-.611 1.466-1.003 1.502-.851.078-1.498-.562-2.323-1.102-1.291-.845-2.02-1.371-3.273-2.196-1.448-.953-.509-1.477.316-2.333.216-.224 3.968-3.633 4.041-3.942.009-.039.018-.183-.068-.259-.086-.076-.212-.05-.304-.029-.129.029-2.191 1.39-6.186 4.083-.585.402-1.115.597-1.59.587-.524-.011-1.531-.296-2.28-.539C.731 7.522.001 7.364.064 6.858c.033-.264.397-.533 1.091-.809z"/></svg>