<svg xmlns="http://www.w3.org/2000/svg" viewBox="0 0 40 40"><circle fill="none" cx="20" cy="20" r="19.5"/><path stroke="none" d="M33.009 33.775l-.66-.327c-1.905-.544-3.805-1.104-5.715-1.627-2.121-.58-2.958-1.511-2.557-3.646.349-1.86 1.183-3.627 1.766-5.447.403-1.259 1.265-2.668.989-3.778-.398-1.603-.046-3.015.045-4.518.123-2.023-.255-3.987-2.162-5.055C23.196 8.529 21.61 7.984 20 8c-1.61-.016-3.196.528-4.714 1.378-1.907 1.068-2.285 3.032-2.162 5.055.091 1.503.443 2.914.045 4.518-.276 1.11.586 2.519.989 3.778.583 1.82 1.417 3.586 1.766 5.447.401 2.134-.436 3.066-2.557 3.646-1.911.522-3.811 1.083-5.715 1.627l-.66.327-.295 1.254C9.24 37.341 13.461 40 20 40s10.76-2.659 13.304-4.971l-.295-1.254z"/></svg>