<svg xmlns="http://www.w3.org/2000/svg" viewBox="0 0 40 40"><path stroke="none" opacity=".2" d="M33.009 33.775l-.66-.327c-1.905-.544-3.805-1.104-5.715-1.627-2.121-.58-2.958-1.511-2.557-3.646.349-1.86 1.183-3.627 1.766-5.447.403-1.259 1.265-2.668.989-3.778-.398-1.603-.046-3.015.045-4.518.123-2.023-.255-3.987-2.162-5.055C23.196 8.529 21.61 7.984 20 8c-1.61-.016-3.196.528-4.714 1.378-1.907 1.068-2.285 3.032-2.162 5.055.091 1.503.443 2.914.045 4.518-.276 1.11.586 2.519.989 3.778.583 1.82 1.417 3.586 1.766 5.447.401 2.134-.436 3.066-2.557 3.646-1.911.522-3.811 1.083-5.715 1.627l-.66.327-.295 1.254C9.24 37.341 13.461 40 20 40s10.76-2.659 13.304-4.971l-.295-1.254zM35.821 32.232l-.832-.644a19.024 19.024 0 002.491-4.271l.97.407a20.087 20.087 0 01-2.629 4.508zm4-9.545l-1.043-.141c.22-1.63.225-3.293.015-4.942l1.034-.212.01.079a20.014 20.014 0 01-.016 5.216zm-2.311-9.935a18.834 18.834 0 00-2.471-4.279l.834-.641a19.858 19.858 0 012.609 4.519l-.972.401zm-5.966-7.776a19.061 19.061 0 00-4.279-2.478l.405-.972c1.61.67 3.129 1.55 4.515 2.616l-.641.834zM1.551 27.724l.97-.407a19.046 19.046 0 002.491 4.271l-.832.644a20.012 20.012 0 01-2.629-4.508zM.162 17.471l.01-.079 1.034.212a19.01 19.01 0 00.015 4.942l-1.043.141a20.102 20.102 0 01-.016-5.216zm1.356-5.121a19.9 19.9 0 012.609-4.519l.834.641a18.877 18.877 0 00-2.471 4.279l-.972-.401zm6.298-8.208a20.118 20.118 0 014.515-2.616l.405.972a19.122 19.122 0 00-4.28 2.478l-.64-.834zm14.675-2.928a19.768 19.768 0 00-4.981-.007L17.378.169s3.551-.222 5.25.001l-.137 1.044z"/></svg>