<svg xmlns="http://www.w3.org/2000/svg" viewBox="0 0 16 16"><path stroke="none" d="M15.632 3.914c.111-.369 0-.641-.53-.641h-1.751c-.445 0-.65.235-.761.493 0 0-.891 2.16-2.152 3.563-.408.407-.593.536-.816.536-.111 0-.272-.129-.272-.498V3.914c0-.443-.129-.641-.5-.641H6.099c-.279 0-.446.206-.446.401 0 .42.631.517.696 1.699v2.566c0 .562-.102.665-.325.665-.593 0-2.037-2.17-2.893-4.653-.168-.483-.336-.678-.784-.678H.597c-.501 0-.601.235-.601.493 0 .462.594 2.751 2.764 5.779 1.446 2.068 3.485 3.189 5.339 3.189 1.113 0 1.251-.25 1.251-.678v-1.563c0-.498.105-.597.458-.597.259 0 .705.129 1.743 1.126 1.187 1.181 1.383 1.712 2.051 1.712h1.75c.5 0 .751-.25.606-.741-.158-.489-.724-1.2-1.476-2.042-.408-.48-1.021-.997-1.206-1.255-.26-.333-.185-.48 0-.776 0 0 2.133-2.991 2.356-4.006z"/></svg>